<?xml version="1.0" encoding="UTF-8" standalone="no"?>
<!-- Created with Inkscape (http://www.inkscape.org/) -->

<svg
   xmlns:dc="http://purl.org/dc/elements/1.1/"
   xmlns:cc="http://creativecommons.org/ns#"
   xmlns:rdf="http://www.w3.org/1999/02/22-rdf-syntax-ns#"
   xmlns:svg="http://www.w3.org/2000/svg"
   xmlns="http://www.w3.org/2000/svg"
   xmlns:sodipodi="http://sodipodi.sourceforge.net/DTD/sodipodi-0.dtd"
   xmlns:inkscape="http://www.inkscape.org/namespaces/inkscape"
   width="159.90044mm"
   height="84.352737mm"
   viewBox="0 0 159.90044 84.352737"
   version="1.1"
   id="svg8"
   inkscape:version="0.92.4 (5da689c313, 2019-01-14)"
   sodipodi:docname="panela-html.svg">
  <defs
     id="defs2" />
  <sodipodi:namedview
     id="base"
     pagecolor="#ffffff"
     bordercolor="#666666"
     borderopacity="1.0"
     inkscape:pageopacity="0.0"
     inkscape:pageshadow="2"
     inkscape:zoom="1.1483448"
     inkscape:cx="-70.92341"
     inkscape:cy="168.58623"
     inkscape:document-units="mm"
     inkscape:current-layer="layer1"
     showgrid="false"
     inkscape:window-width="1920"
     inkscape:window-height="1001"
     inkscape:window-x="-9"
     inkscape:window-y="-9"
     inkscape:window-maximized="1"
     fit-margin-top="0"
     fit-margin-left="0"
     fit-margin-right="0"
     fit-margin-bottom="0" />
  <metadata
     id="metadata5">
    <rdf:RDF>
      <cc:Work
         rdf:about="">
        <dc:format>image/svg+xml</dc:format>
        <dc:type
           rdf:resource="http://purl.org/dc/dcmitype/StillImage" />
        <dc:title />
      </cc:Work>
    </rdf:RDF>
  </metadata>
  <g
     inkscape:label="Camada 1"
     inkscape:groupmode="layer"
     id="layer1"
     transform="translate(-25.128181,-15.35249)">
    <rect
       style="opacity:1;fill:#b3b3b3;fill-opacity:0.83529412;stroke:#b3b3b3;stroke-width:1.99999988;stroke-linecap:square;stroke-linejoin:round;stroke-miterlimit:4;stroke-dasharray:none;stroke-dashoffset:0;stroke-opacity:1;paint-order:normal"
       id="rect815"
       width="37.939861"
       height="60.90144"
       x="29.934193"
       y="23.68051"
       ry="8.0180855"
       rx="8.0180855" />
    <rect
       rx="8.0180855"
       ry="8.0180855"
       y="23.984053"
       x="84.702217"
       height="60.90144"
       width="37.939861"
       id="rect817"
       style="opacity:1;fill:#b3b3b3;fill-opacity:0.83529412;stroke:#b3b3b3;stroke-width:1.99999988;stroke-linecap:square;stroke-linejoin:round;stroke-miterlimit:4;stroke-dasharray:none;stroke-dashoffset:0;stroke-opacity:1;paint-order:normal" />
    <rect
       style="opacity:1;fill:#b3b3b3;fill-opacity:0.83529412;stroke:#b3b3b3;stroke-width:1.99999988;stroke-linecap:square;stroke-linejoin:round;stroke-miterlimit:4;stroke-dasharray:none;stroke-dashoffset:0;stroke-opacity:1;paint-order:normal"
       id="rect819"
       width="37.939861"
       height="60.90144"
       x="142.0584"
       y="24.591131"
       ry="8.0180855"
       rx="8.0180855" />
    <path
       style="opacity:1;fill:#ff0000;fill-opacity:0.83529412;stroke:#800000;stroke-width:2;stroke-linecap:square;stroke-linejoin:round;stroke-miterlimit:4;stroke-dasharray:none;stroke-dashoffset:0;stroke-opacity:1;paint-order:normal"
       d="m 92.207986,89.398395 6.080383,-2.138156 6.214021,1.670434 6.5481,-1.670434 5.47902,1.937704 c 3.61467,1.27836 5.67948,-2.734961 5.61266,3.617746 -0.0144,1.372208 -0.67004,2.610732 -1.72923,3.506203 -1.05919,0.895472 -2.52195,1.447891 -4.1507,1.447891 H 92.207986 c -3.257481,0 -5.960558,-2.210711 -5.87993,-4.954094 0.200452,-6.820428 2.806912,-2.336673 5.87993,-3.417294 z"
       id="rect821"
       inkscape:connector-curvature="0"
       sodipodi:nodetypes="scccsssssss" />
    <path
       sodipodi:nodetypes="scccsssssss"
       inkscape:connector-curvature="0"
       id="path828"
       d="m 35.546846,89.53203 6.080383,-2.138156 6.214021,1.670434 6.5481,-1.670434 5.47902,1.937704 c 3.61467,1.27836 5.67948,-2.734961 5.61266,3.617746 -0.0144,1.372208 -0.67004,2.610732 -1.72923,3.506203 -1.05919,0.895472 -2.52195,1.447891 -4.1507,1.447891 H 35.546846 c -3.257481,0 -5.960558,-2.210711 -5.87993,-4.954094 0.200452,-6.820428 2.806912,-2.336673 5.87993,-3.417294 z"
       style="opacity:1;fill:#b4b4b4;fill-opacity:0.83529413;stroke:#b3b3b3;stroke-width:2;stroke-linecap:square;stroke-linejoin:round;stroke-miterlimit:4;stroke-dasharray:none;stroke-dashoffset:0;stroke-opacity:1;paint-order:normal" />
    <path
       style="opacity:1;fill:#b3b3b3;fill-opacity:0.83529412;stroke:#b3b3b3;stroke-width:2;stroke-linecap:square;stroke-linejoin:round;stroke-miterlimit:4;stroke-dasharray:none;stroke-dashoffset:0;stroke-opacity:1;paint-order:normal"
       d="m 148.17948,90.333839 6.08038,-2.138156 6.21402,1.670434 6.5481,-1.670434 5.47902,1.937704 c 3.61467,1.27836 5.67948,-2.734961 5.61266,3.617746 -0.0144,1.372208 -0.67004,2.610732 -1.72923,3.506203 -1.05919,0.895472 -2.52195,1.447891 -4.1507,1.447891 h -24.05425 c -3.25748,0 -5.96056,-2.210711 -5.87993,-4.954094 0.20045,-6.820428 2.80691,-2.336673 5.87993,-3.417294 z"
       id="path830"
       inkscape:connector-curvature="0"
       sodipodi:nodetypes="scccsssssss" />
    <rect
       style="opacity:1;fill:#ffffff;fill-opacity:1;stroke:#b3b3b3;stroke-width:2;stroke-linecap:square;stroke-linejoin:round;stroke-miterlimit:4;stroke-dasharray:none;stroke-dashoffset:0;stroke-opacity:1;paint-order:normal"
       id="rect832"
       width="3.3844209"
       height="3.5314867"
       x="26.128181"
       y="30.542183" />
    <rect
       y="30.542183"
       x="67.932388"
       height="3.5314867"
       width="3.3844209"
       id="rect834"
       style="opacity:1;fill:#ffffff;fill-opacity:1;stroke:#b3b3b3;stroke-width:2;stroke-linecap:square;stroke-linejoin:round;stroke-miterlimit:4;stroke-dasharray:none;stroke-dashoffset:0;stroke-opacity:1;paint-order:normal" />
    <rect
       y="30.542183"
       x="81.161568"
       height="3.5314867"
       width="3.3844209"
       id="rect836"
       style="opacity:1;fill:#ffffff;fill-opacity:1;stroke:#b3b3b3;stroke-width:2;stroke-linecap:square;stroke-linejoin:round;stroke-miterlimit:4;stroke-dasharray:none;stroke-dashoffset:0;stroke-opacity:1;paint-order:normal" />
    <rect
       style="opacity:1;fill:#ffffff;fill-opacity:1;stroke:#b3b3b3;stroke-width:2;stroke-linecap:square;stroke-linejoin:round;stroke-miterlimit:4;stroke-dasharray:none;stroke-dashoffset:0;stroke-opacity:1;paint-order:normal"
       id="rect838"
       width="3.3844209"
       height="3.5314867"
       x="122.96574"
       y="30.542183" />
    <rect
       style="opacity:1;fill:#ffffff;fill-opacity:1;stroke:#b3b3b3;stroke-width:2;stroke-linecap:square;stroke-linejoin:round;stroke-miterlimit:4;stroke-dasharray:none;stroke-dashoffset:0;stroke-opacity:1;paint-order:normal"
       id="rect840"
       width="3.3844209"
       height="3.5314867"
       x="138.84059"
       y="30.542183" />
    <rect
       y="30.542183"
       x="180.6442"
       height="3.5314867"
       width="3.3844209"
       id="rect842"
       style="opacity:1;fill:#ffffff;fill-opacity:1;stroke:#b3b3b3;stroke-width:2;stroke-linecap:square;stroke-linejoin:round;stroke-miterlimit:4;stroke-dasharray:none;stroke-dashoffset:0;stroke-opacity:1;paint-order:normal" />
    <ellipse
       style="opacity:1;fill:#ff0000;fill-opacity:0.83529412;stroke:#000000;stroke-width:2;stroke-linecap:square;stroke-linejoin:round;stroke-miterlimit:4;stroke-dasharray:none;stroke-dashoffset:0;stroke-opacity:0;paint-order:normal"
       id="path868"
       cx="104.10685"
       cy="78.039436"
       rx="2.6726952"
       ry="2.6058779" />
    <path
       style="opacity:1;fill:#007cff;fill-opacity:1;stroke:#000000;stroke-width:7.55905533;stroke-linecap:square;stroke-linejoin:round;stroke-miterlimit:4;stroke-dasharray:none;stroke-dashoffset:0;stroke-opacity:0;paint-order:normal"
       d="m 398.64648,61.804688 c -0.13932,0 -0.26622,0.05782 -0.35742,0.148437 -0.0462,0.04588 -0.0837,0.09918 -0.10937,0.160156 -0.0255,0.06047 -0.0391,0.127313 -0.0391,0.197266 v 8.333984 15.404297 c 0,0.279812 0.22605,0.50586 0.50586,0.50586 h 8.33204 c 0.27981,-10e-7 0.50586,-0.226048 0.50586,-0.50586 v -14.90039 h 83.23046 V 288.94922 h -92.5 c -2.96785,0 -5.35742,2.38761 -5.35742,5.35547 0,2.96785 2.38957,5.35742 5.35742,5.35742 h 97.85743 4.85156 c 0.27981,0 0.5039,-0.22409 0.5039,-0.50391 V 70.644531 62.310547 c 0,-0.279812 -0.22409,-0.505859 -0.5039,-0.505859 h -93.94531 z"
       transform="scale(0.26458333)"
       id="recirculacao"
       inkscape:connector-curvature="0"
       inkscape:label="recirculacao" />
    <rect
       style="opacity:1;fill:#333333;fill-opacity:1;stroke:none;stroke-width:2;stroke-linecap:square;stroke-linejoin:round;stroke-miterlimit:4;stroke-dasharray:none;stroke-dashoffset:0;stroke-opacity:0;paint-order:normal"
       id="rect839"
       width="10.690781"
       height="21.247927"
       x="126.28485"
       y="67.682747"
       rx="0.13363469"
       ry="0.13363469" />
    <ellipse
       style="opacity:1;fill:#ffffff;fill-opacity:1;stroke:none;stroke-width:2;stroke-linecap:square;stroke-linejoin:round;stroke-miterlimit:4;stroke-dasharray:none;stroke-dashoffset:0;stroke-opacity:0;paint-order:normal"
       id="bomba"
       cx="131.83948"
       cy="77.653862"
       rx="3.1316304"
       ry="3.1250942" />
  </g>
</svg>
